<svg width="256" height="256" viewBox="0 0 256 256" fill="none" xmlns="http://www.w3.org/2000/svg">
<rect width="256" height="256" rx="16" fill="#2A2024"/>
<g clip-path="url(#clip0_323_85)">
<rect x="10" y="10" width="236" height="236" rx="8" fill="#2A2024"/>
<path d="M216.5 147.667L187 118.167H118.166C115.558 118.167 113.057 117.131 111.213 115.287C109.369 113.442 108.333 110.941 108.333 108.333V49.3333C108.333 46.7254 109.369 44.2242 111.213 42.3801C113.057 40.536 115.558 39.5 118.166 39.5H206.666C209.274 39.5 211.775 40.536 213.62 42.3801C215.464 44.2242 216.5 46.7254 216.5 49.3333V147.667Z" fill="#392F35" stroke="#FF7E5F" stroke-width="12" stroke-linecap="round" stroke-linejoin="round"/>
<path d="M147.667 157.5V177.166C147.667 179.774 146.631 182.275 144.787 184.12C142.942 185.964 140.441 187 137.833 187H69L39.5 216.5V118.166C39.5 115.558 40.536 113.057 42.3801 111.213C44.2242 109.369 46.7254 108.333 49.3333 108.333H69" stroke="#FF7E5F" stroke-width="12" stroke-linecap="round" stroke-linejoin="round"/>
</g>
<defs>
<clipPath id="clip0_323_85">
<rect x="10" y="10" width="236" height="236" rx="8" fill="white"/>
</clipPath>
</defs>
</svg>
